# Blender 4.1.1
# www.blender.org
mtllib box.mtl
o Box
v 10.000000 16.000000 -30.000000
v 10.000000 0.000000 -30.000000
v 10.000000 16.000000 -10.000000
v 10.000000 0.000000 -10.000000
v -10.000000 16.000000 -30.000000
v -10.000000 0.000000 -30.000000
v -10.000000 16.000000 -10.000000
v -10.000000 0.000000 -10.000000
vn -0.0000 1.0000 -0.0000
vn -1.0000 -0.0000 -0.0000
vn -0.0000 -0.0000 1.0000
vn -0.0000 -1.0000 -0.0000
vn 1.0000 -0.0000 -0.0000
vt 1.000000 0.000000
vt 0.000000 1.000000
vt 0.000000 0.000000
vt 1.000000 1.000000
s 0
usemtl Walls
f 3/1/2 2/2/2 4/3/2
f 1/1/3 6/2/3 2/3/3
f 7/1/4 1/2/4 3/3/4
f 5/1/5 8/2/5 6/3/5
f 3/1/2 1/4/2 2/2/2
usemtl Back
f 1/1/3 5/4/3 6/2/3
usemtl Walls
f 7/1/4 5/4/4 1/2/4
f 5/1/5 7/4/5 8/2/5
usemtl Floor
f 4/1/1 6/2/1 8/3/1
f 4/1/1 2/4/1 6/2/1